<svg xmlns="http://www.w3.org/2000/svg" viewBox="0 0 574.84 172.58"><defs><style>.cls-1{font-size:100px;font-family:FuturaBT-Book, Futura Bk BT;}.cls-1,.cls-4{fill:#a89acb;}.cls-2{letter-spacing:-0.13em;}.cls-3{letter-spacing:-0.07em;}</style></defs><title>Logo1 side by side</title><g id="Ebene_2" data-name="Ebene 2"><g id="Logo1_side_by_side" data-name="Logo1 side by side"><g id="logo"><text class="cls-1" transform="translate(215.66 123.4)">POS<tspan class="cls-2" x="189.21" y="0">T</tspan><tspan x="227" y="0">.</tspan><tspan class="cls-3" x="256.49" y="0">L</tspan><tspan x="294.82" y="0">Y</tspan></text><path id="inner_line" data-name="inner line" class="cls-4" d="M0,86.08C-.5,39.44,37.35.22,85.35,0c47.55-.22,87.19,37.72,87.28,86.38s-38.42,86.28-86.18,86.2A86.4,86.4,0,0,1,0,86.08Zm86.9,82.1a81.41,81.41,0,0,0,81.32-81.57A82.51,82.51,0,0,0,85.4,4.39,81.26,81.26,0,0,0,4.21,86.11C4.32,132.46,42.2,168.35,86.9,168.18Z"/><path id="paperplane" class="cls-4" d="M162.76,86.57A75.66,75.66,0,0,1,87,162.91c-43.66.13-77.4-34.31-77.44-77,0-41.87,33-76,75.93-76.2S163.2,44.42,162.76,86.57ZM129.88,53.28c-.16,1.37-.91,1.49-1.44,1.81q-15.37,9.38-30.75,18.73-4,2.42-7.84,5c-.69.46-1.49,1.12-.86,2.07s1.48.63,2.29.29a6.82,6.82,0,0,0,1-.54Q114,67.16,135.83,53.73c.77-.48,1.7-1.48,2.48-.94,1,.68,0,1.72-.36,2.51Q123,92,108,128.72c-.82,2-1.67,2.21-3.55,1.28-9.16-4.54-18.37-9-27.59-13.37-2.82-1.35-3-1.69-.75-3.83,6.59-6.26,13.28-12.41,19.88-18.67q16-15.19,31.93-30.48c.69-.66,1.92-1.44,1-2.55s-2-.13-2.82.62c-2.51,2.39-4.92,4.89-7.44,7.26C111.08,76,103.51,83,96,90.1c-7,6.54-13.78,13.27-20.89,19.64a22.68,22.68,0,0,0-7.44,11.89c-.21.89-.82,1.94.51,2.35,1,.32,1.45-.57,1.85-1.34,2.53-4.79,2.53-4.79,7.4-2.48.77.37,1.55.67,2.31,1,1.24.59,1.44,1.37.44,2.39-1.65,1.67-3.23,3.39-4.92,5-3.41,3.29-6.86,6.53-10.91,10.36.34-1.25.45-1.67.57-2.1.28-1,.83-2.2-.47-2.68-1.45-.54-1.83.84-2.32,1.84s-.38,2.2-1.64,2.85a7.75,7.75,0,0,1-.5-1.13c-2.31-10-4.56-19.91-6.93-29.84a3.53,3.53,0,0,1,1.87-4.4c5.62-3.39,11.2-6.84,16.78-10.28q5.76-3.54,11.47-7.13c.85-.54,2-1.17,1.22-2.4s-1.83-.31-2.72.13c-.33.16-.64.39-1,.58C71.6,90,62.46,95.53,53.39,101.19c-1.85,1.15-3.35,1.26-5.13,0s-3.67-2.27-5.55-3.32c-.91-.51-2.09-1-2.73.18s.51,1.83,1.38,2.36c2,1.21,4,2.47,6.06,3.55a5,5,0,0,1,2.66,3.7q4.1,17.94,8.28,35.84c.27,1.16.34,2.58,1.76,3s2-.81,2.78-1.57c6.45-6.42,12.94-12.79,19.28-19.32,1.69-1.74,3.08-1.85,5.15-.8,5.76,2.95,11.61,5.71,17.44,8.52,3.06,1.48,3.73,1.25,5.08-1.95,1.53-3.63,3-7.3,4.44-11q14.16-34.62,28.33-69.24c.47-1.17,1.43-2.48.34-3.68s-2.5-.35-3.69,0c-8.71,2.62-17.39,5.31-26.09,8Q85.88,63.79,58.57,72.1q-19,5.78-38,11.5c-.87.27-2,.39-2.22,1.48-.27,1.29.89,1.75,1.73,2.28C23.7,89.59,27.3,91.79,30.9,94c.87.52,1.93,1.37,2.71.17.91-1.37-.45-2-1.35-2.58-2-1.32-4.17-2.52-6.24-3.82-.74-.47-2-.63-1.79-1.84.2-.92,1.32-.89,2.11-1.12l91.23-27.72C121.58,55.87,125.57,54.61,129.88,53.28Z"/></g></g></g></svg>